<svg width="46" height="42" viewBox="0 0 46 42" fill="none" xmlns="http://www.w3.org/2000/svg">
<path d="M12.9418 16.5C11.3518 16.5 10.0672 17.8406 10.0672 19.5C10.0672 21.1594 11.3518 22.5 12.9418 22.5C14.5318 22.5 15.8164 21.1594 15.8164 19.5C15.8164 17.8406 14.5318 16.5 12.9418 16.5ZM23.003 16.5C21.413 16.5 20.1284 17.8406 20.1284 19.5C20.1284 21.1594 21.413 22.5 23.003 22.5C24.593 22.5 25.8776 21.1594 25.8776 19.5C25.8776 17.8406 24.593 16.5 23.003 16.5ZM33.0642 16.5C31.4742 16.5 30.1896 17.8406 30.1896 19.5C30.1896 21.1594 31.4742 22.5 33.0642 22.5C34.6542 22.5 35.9388 21.1594 35.9388 19.5C35.9388 17.8406 34.6542 16.5 33.0642 16.5ZM23.003 0C10.3007 0 0.005962 8.72812 0.005962 19.5C0.005962 23.9625 1.79362 28.05 4.75808 31.3406C3.41958 35.0344 0.634787 38.1656 0.589871 38.2031C-0.00302122 38.8594 -0.164719 39.8156 0.176643 40.6406C0.518005 41.4656 1.29954 42 2.16193 42C7.68661 42 12.0435 39.5906 14.6576 37.6594C17.2537 38.5125 20.0565 39 23.003 39C35.7052 39 46 30.2719 46 19.5C46 8.72812 35.7052 0 23.003 0ZM23.003 34.5C20.6045 34.5 18.2329 34.1156 15.9601 33.3656L13.921 32.6906L12.1692 33.9844C10.8846 34.9313 9.12392 35.9906 7.00388 36.7031C7.65966 35.5687 8.29747 34.2937 8.79154 32.9344L9.74376 30.3L7.89322 28.2562C6.26726 26.4469 4.3179 23.4562 4.3179 19.5C4.3179 11.2313 12.6992 4.5 23.003 4.5C33.3067 4.5 41.6881 11.2313 41.6881 19.5C41.6881 27.7687 33.3067 34.5 23.003 34.5Z" fill="black" fill-opacity="0.48"/>
</svg>
