<svg width="44" height="43" viewBox="0 0 44 43" fill="none" xmlns="http://www.w3.org/2000/svg">
<path d="M43.1543 30.4267C41.2568 28.6832 37.7064 26.0604 37.7064 17.4688C37.7064 10.9432 32.3557 5.71934 25.1409 4.43773V2.6875C25.1409 1.2035 23.7345 0 22 0C20.2655 0 18.8591 1.2035 18.8591 2.6875V4.43773C11.6443 5.71934 6.29362 10.9432 6.29362 17.4688C6.29362 26.0604 2.74318 28.6832 0.84569 30.4267C0.256406 30.9684 -0.0048428 31.6159 6.7904e-05 32.25C0.0108714 33.6273 1.27489 34.9375 3.15274 34.9375H40.8473C42.7251 34.9375 43.9901 33.6273 43.9999 32.25C44.0048 31.6159 43.7436 30.9676 43.1543 30.4267ZM6.63246 30.9062C8.71656 28.5572 10.9951 24.6637 11.0059 17.5175C11.0059 17.5007 11 17.4855 11 17.4688C11 12.2735 15.9245 8.0625 22 8.0625C28.0755 8.0625 33 12.2735 33 17.4688C33 17.4855 32.9941 17.5007 32.9941 17.5175C33.0049 24.6645 35.2834 28.558 37.3675 30.9062H6.63246ZM22 43C25.4689 43 28.2828 40.5938 28.2828 37.625H15.7173C15.7173 40.5938 18.5311 43 22 43Z" fill="black" fill-opacity="0.48"/>
</svg>
